<?xml version="1.0" encoding="UTF-8"?>
<svg xmlns="http://www.w3.org/2000/svg" id="Layer_1" data-name="Layer 1" viewBox="0 0 24 24">
  <path d="m11.5,13c.276,0,.5.224.5.5s-.224.5-.5.5h-4c-.276,0-.5-.224-.5-.5s.224-.5.5-.5h4Zm5.5-3.5c0-.276-.224-.5-.5-.5H7.5c-.276,0-.5.224-.5.5s.224.5.5.5h9c.276,0,.5-.224.5-.5Zm-9.5-3.5h9c.276,0,.5-.224.5-.5s-.224-.5-.5-.5H7.5c-.276,0-.5.224-.5.5s.224.5.5.5Zm13.491,11.953c.002.016.009,4.824.009,4.824,0,.496-.296.938-.754,1.128-.46.189-.981.085-1.331-.265l-.415-.415-.415.415c-.234.234-.545.358-.862.358-.157,0-.316-.03-.469-.093-.458-.19-.754-.633-.754-1.128,0,0,.008-4.808.009-4.824-.623-.632-1.009-1.498-1.009-2.453,0-1.93,1.57-3.5,3.5-3.5.539,0,1.044.133,1.5.351v-7.851c0-1.93-1.57-3.5-3.5-3.5H7.5c-1.93,0-3.5,1.57-3.5,3.5v13c0,1.93,1.57,3.5,3.5,3.5h6c.276,0,.5.224.5.5s-.224.5-.5.5h-6c-2.481,0-4.5-2.019-4.5-4.5V4.5C3,2.019,5.019,0,7.5,0h9c2.481,0,4.5,2.019,4.5,4.5,0,0-.008,8.531-.009,8.547.623.632,1.009,1.498,1.009,2.453s-.387,1.821-1.009,2.453Zm-4.991-2.453c0,1.378,1.121,2.5,2.5,2.5s2.5-1.122,2.5-2.5-1.121-2.5-2.5-2.5-2.5,1.122-2.5,2.5Zm4,7.277v-4.128c-.456.219-.961.351-1.5.351s-1.044-.133-1.5-.351v4.128c0,.128.086.183.137.204.052.022.15.043.241-.048l.769-.769c.195-.195.512-.195.707,0l.769.769c.091.092.19.069.241.048.051-.021.137-.076.137-.204Z"/>
</svg>
